<svg width="804" height="244" viewBox="0 0 804 244" fill="none" xmlns="http://www.w3.org/2000/svg">
<path d="M187.65 3.54572C199.753 1.58767 211.152 9.81169 213.11 21.9149L239.925 187.65C241.883 199.753 233.658 211.152 221.554 213.11L55.8191 239.925C43.716 241.882 32.3172 233.658 30.3591 221.555L3.54565 55.8201C1.58752 43.7169 9.81156 32.3174 21.9148 30.3592L187.65 3.54572ZM178.635 167.081V167.1C177.115 169.16 174.835 170.11 172.275 170.15L70.3748 170.121C68.2348 169.961 65.4645 168.621 64.3845 166.711C63.9545 165.971 64.0948 164.75 63.4148 164.48V187.98C63.4148 191.63 69.5448 197.22 73.3748 197.19H169.857C174.132 197.099 179.974 191.715 179.974 187.6V164.471L178.635 167.081ZM160.695 181.11C162.086 180.8 168.095 180.83 169.655 181.02C170.365 181.1 171.075 181.421 171.565 181.921C173.435 183.791 172.544 187.38 169.854 188.02C168.354 188.37 162.595 188.401 161.075 188.091C157.425 187.361 157.195 181.9 160.695 181.11ZM178.635 134.011C177.165 135.951 174.984 136.731 172.635 137.041L71.4851 137.06C68.9251 136.97 66.3346 136.101 64.7546 134.011L63.4148 131.4V154.53C63.4148 158.69 69.9343 164.29 74.1443 164.11L168.525 164.14C172.975 164.68 179.974 158.92 179.974 154.53V131.4L178.635 134.011ZM160.315 148.02C161.317 147.74 168.745 147.771 169.995 147.971C172.945 148.431 173.394 152.791 171.094 154.291C169.154 155.551 160.665 155.59 159.045 153.85C157.505 152.2 158.215 148.65 160.315 148.02ZM178.625 100.921H178.635C177.224 102.941 174.554 103.531 172.264 103.951C137.765 103.591 103.074 104.7 68.6746 103.39C67.1347 102.98 65.7046 102.241 64.7546 100.921L63.4148 98.3201V121.451C63.4152 125.901 70.6852 131.681 75.2351 131.051L168.865 131.03C173.175 131.35 179.964 125.641 179.965 121.451V98.3201L178.625 100.921ZM161.075 114.57C162.685 114.24 169.324 114.281 170.684 114.951C173.354 116.251 173.165 121.03 169.995 121.61C168.645 121.86 161.224 121.781 160.144 121.341C157.055 120.09 157.775 115.23 161.075 114.57ZM141.054 39.2908C128.694 38.0509 114.254 40.1207 101.675 39.3807C96.0547 40.5707 90.8247 43.8805 87.7947 48.8104C80.3447 60.9504 75.0848 76.2108 67.9148 88.7108C66.4649 93.8707 68.8948 97.1309 74.1248 97.5809H169.275C173.865 97.1908 176.464 94.6603 175.804 89.8904C168.885 76.9705 163.204 61.2003 155.594 48.8104C152.734 44.1505 146.594 39.8408 141.054 39.2908Z" fill="white"/>
<path d="M335.195 79.7006H292.335V107.181H328.165C331.485 107.181 333.965 107.931 335.605 109.411C337.245 110.901 338.065 112.891 338.065 115.381C338.065 117.871 337.235 119.851 335.575 121.311C333.915 122.781 331.445 123.511 328.175 123.511H292.345V158.901C292.345 163.391 291.335 166.731 289.305 168.901C287.275 171.071 284.675 172.161 281.505 172.161C278.335 172.161 275.655 171.061 273.625 168.861C271.595 166.661 270.585 163.341 270.585 158.901V76.2506C270.585 73.1206 271.045 70.5706 271.975 68.5906C272.905 66.6106 274.355 65.1706 276.335 64.2706C278.315 63.3706 280.845 62.9106 283.915 62.9106H335.205C338.675 62.9106 341.245 63.6806 342.935 65.2206C344.615 66.7606 345.465 68.7706 345.465 71.2606C345.465 73.7506 344.625 75.8406 342.935 77.3806C341.245 78.9206 338.675 79.6906 335.205 79.6906L335.195 79.7006Z" fill="white"/>
<path d="M358.275 160.001V73.2506C358.275 69.2506 359.165 66.2206 360.945 64.1606C362.725 62.1006 365.135 61.0806 368.165 61.0806C371.195 61.0806 373.635 62.0906 375.495 64.1206C377.355 66.1506 378.275 69.1906 378.275 73.2406V159.991C378.275 164.051 377.335 167.091 375.455 169.111C373.575 171.141 371.145 172.151 368.165 172.151C365.185 172.151 362.855 171.101 361.025 169.001C359.195 166.901 358.275 163.901 358.275 159.991V160.001Z" fill="white"/>
<path d="M449.505 160.881C444.665 164.641 439.995 167.461 435.475 169.341C430.955 171.221 425.885 172.161 420.275 172.161C415.145 172.161 410.645 171.151 406.755 169.121C402.875 167.091 399.875 164.351 397.775 160.881C395.675 157.411 394.625 153.651 394.625 149.601C394.625 144.131 396.355 139.471 399.825 135.611C403.295 131.751 408.055 129.161 414.115 127.841C415.385 127.551 418.535 126.891 423.565 125.861C428.595 124.831 432.905 123.891 436.495 123.041C440.085 122.191 443.985 121.151 448.185 119.931C447.935 114.651 446.875 110.781 444.995 108.321C443.115 105.851 439.215 104.621 433.305 104.621C428.225 104.621 424.405 105.331 421.835 106.741C419.275 108.161 417.075 110.281 415.245 113.111C413.415 115.941 412.115 117.811 411.365 118.721C410.605 119.621 408.985 120.081 406.495 120.081C404.245 120.081 402.305 119.361 400.675 117.921C399.035 116.481 398.215 114.641 398.215 112.391C398.215 108.871 399.465 105.451 401.955 102.131C404.445 98.8106 408.335 96.0706 413.605 93.9206C418.875 91.7706 425.445 90.7006 433.315 90.7006C442.105 90.7006 449.025 91.7406 454.055 93.8106C459.085 95.8906 462.635 99.1706 464.715 103.661C466.795 108.161 467.835 114.111 467.835 121.541C467.835 126.231 467.825 130.211 467.795 133.481C467.765 136.751 467.735 140.391 467.685 144.401C467.685 148.161 468.305 152.081 469.555 156.161C470.805 160.241 471.425 162.861 471.425 164.041C471.425 166.091 470.465 167.961 468.535 169.641C466.605 171.331 464.415 172.171 461.975 172.171C459.925 172.171 457.895 171.211 455.895 169.281C453.895 167.351 451.765 164.551 449.515 160.891L449.505 160.881ZM448.185 131.941C445.255 133.021 440.995 134.151 435.395 135.351C429.805 136.551 425.935 137.431 423.785 137.991C421.635 138.551 419.585 139.651 417.625 141.291C415.665 142.931 414.695 145.211 414.695 148.141C414.695 151.071 415.845 153.741 418.135 155.871C420.425 157.991 423.435 159.061 427.145 159.061C431.105 159.061 434.755 158.191 438.105 156.461C441.445 154.731 443.905 152.491 445.465 149.761C447.275 146.731 448.175 141.751 448.175 134.811V131.951L448.185 131.941Z" fill="white"/>
<path d="M485.475 92.5906H487.675V80.5706C487.675 77.3506 487.755 74.8206 487.935 72.9906C488.115 71.1606 488.585 69.5806 489.365 68.2606C490.145 66.8906 491.265 65.7806 492.735 64.9306C494.205 64.0806 495.835 63.6506 497.645 63.6506C500.185 63.6506 502.485 64.6006 504.535 66.5106C505.905 67.7806 506.765 69.3306 507.135 71.1606C507.505 72.9906 507.685 75.5906 507.685 78.9606V92.5906H515.015C517.845 92.5906 520.005 93.2606 521.495 94.6006C522.985 95.9406 523.725 97.6706 523.725 99.7706C523.725 102.461 522.665 104.341 520.535 105.411C518.415 106.491 515.365 107.021 511.415 107.021H507.675V143.801C507.675 146.931 507.785 149.331 508.005 151.021C508.225 152.711 508.815 154.071 509.765 155.121C510.715 156.171 512.265 156.701 514.415 156.701C515.585 156.701 517.175 156.491 519.175 156.081C521.175 155.671 522.735 155.461 523.865 155.461C525.475 155.461 526.925 156.111 528.225 157.401C529.515 158.691 530.165 160.291 530.165 162.201C530.165 165.421 528.405 167.891 524.885 169.601C521.365 171.311 516.315 172.161 509.715 172.161C503.465 172.161 498.725 171.111 495.505 169.011C492.285 166.911 490.165 164.001 489.165 160.291C488.165 156.581 487.665 151.621 487.665 145.421V107.031H485.025C482.145 107.031 479.945 106.351 478.435 104.981C476.925 103.611 476.165 101.881 476.165 99.7806C476.165 97.6806 476.955 95.9606 478.545 94.6106C480.135 93.2706 482.435 92.6006 485.465 92.6006L485.475 92.5906Z" fill="white"/>
<path d="M568.125 124.391H560.505V158.901C560.505 163.441 559.505 166.791 557.505 168.941C555.505 171.091 552.885 172.161 549.665 172.161C546.195 172.161 543.505 171.041 541.605 168.791C539.705 166.541 538.745 163.251 538.745 158.901V76.2506C538.745 71.5606 539.795 68.1706 541.895 66.0706C543.995 63.9706 547.395 62.9206 552.085 62.9206H587.475C592.355 62.9206 596.535 63.1306 600.005 63.5406C603.475 63.9606 606.595 64.8006 609.385 66.0706C612.755 67.4906 615.735 69.5106 618.325 72.1506C620.915 74.7906 622.875 77.8506 624.225 81.3506C625.565 84.8406 626.245 88.5406 626.245 92.4506C626.245 100.461 623.985 106.861 619.465 111.651C614.945 116.441 608.095 119.831 598.915 121.831C602.775 123.881 606.465 126.911 609.975 130.911C613.495 134.921 616.625 139.181 619.385 143.701C622.145 148.221 624.295 152.301 625.835 155.941C627.375 159.581 628.145 162.081 628.145 163.451C628.145 164.821 627.695 166.271 626.785 167.661C625.885 169.051 624.645 170.151 623.085 170.961C621.525 171.771 619.715 172.171 617.665 172.171C615.225 172.171 613.165 171.591 611.515 170.451C609.855 169.301 608.425 167.851 607.225 166.091C606.025 164.331 604.405 161.741 602.355 158.321L593.635 143.811C590.505 138.491 587.715 134.431 585.245 131.651C582.775 128.871 580.275 126.961 577.735 125.941C575.195 124.911 571.995 124.401 568.135 124.401L568.125 124.391ZM580.585 79.2606H560.505V108.791H579.995C585.225 108.791 589.615 108.341 593.185 107.431C596.745 106.531 599.475 104.991 601.355 102.811C603.235 100.641 604.175 97.6406 604.175 93.8306C604.175 90.8506 603.415 88.2206 601.905 85.9506C600.395 83.6806 598.285 81.9806 595.605 80.8606C593.065 79.7906 588.055 79.2506 580.585 79.2506V79.2606Z" fill="white"/>
<path d="M693.635 160.881V158.321C691.245 161.351 688.725 163.891 686.085 165.941C683.445 167.991 680.565 169.521 677.445 170.521C674.315 171.521 670.755 172.021 666.745 172.021C661.905 172.021 657.574 171.021 653.734 169.021C649.894 167.021 646.935 164.261 644.835 160.741C642.345 156.491 641.094 150.381 641.094 142.421V102.781C641.094 98.7806 641.995 95.7806 643.805 93.8006C645.615 91.8206 648.004 90.8306 650.984 90.8306C653.964 90.8306 656.455 91.8306 658.315 93.8306C660.175 95.8306 661.104 98.8106 661.104 102.771V134.791C661.104 139.431 661.495 143.331 662.275 146.481C663.055 149.631 664.464 152.101 666.484 153.881C668.514 155.661 671.264 156.551 674.724 156.551C678.184 156.551 681.265 155.551 684.245 153.551C687.225 151.551 689.395 148.931 690.765 145.711C691.885 142.881 692.455 136.671 692.455 127.101V102.771C692.455 98.8106 693.385 95.8306 695.245 93.8306C697.105 91.8306 699.515 90.8306 702.495 90.8306C705.475 90.8306 707.865 91.8206 709.674 93.8006C711.484 95.7806 712.385 98.7706 712.385 102.781V160.741C712.385 164.551 711.514 167.411 709.784 169.311C708.054 171.211 705.815 172.171 703.085 172.171C700.355 172.171 698.085 171.181 696.305 169.201C694.515 167.221 693.625 164.451 693.625 160.881H693.635Z" fill="white"/>
<path d="M750.495 101.901V104.321C754.015 99.6806 757.855 96.2706 762.035 94.1006C766.215 91.9306 771.005 90.8406 776.435 90.8406C781.865 90.8406 786.425 91.9906 790.575 94.2806C794.725 96.5806 797.825 99.8206 799.885 104.031C801.205 106.471 802.055 109.111 802.445 111.941C802.835 114.771 803.035 118.391 803.035 122.781V160.001C803.035 164.011 802.115 167.031 800.285 169.091C798.455 171.151 796.075 172.171 793.145 172.171C790.215 172.171 787.745 171.121 785.895 169.021C784.035 166.921 783.105 163.921 783.105 160.011V126.671C783.105 120.081 782.185 115.031 780.355 111.541C778.525 108.051 774.875 106.301 769.405 106.301C765.835 106.301 762.595 107.361 759.665 109.491C756.735 111.611 754.585 114.531 753.215 118.251C752.235 121.231 751.755 126.801 751.755 134.961V160.021C751.755 164.081 750.815 167.121 748.935 169.141C747.055 171.171 744.625 172.181 741.645 172.181C738.665 172.181 736.395 171.131 734.535 169.031C732.675 166.931 731.755 163.931 731.755 160.021V102.211C731.755 98.4006 732.585 95.5506 734.245 93.6706C735.905 91.7906 738.175 90.8506 741.055 90.8506C742.815 90.8506 744.405 91.2706 745.815 92.1006C747.235 92.9306 748.365 94.1806 749.225 95.8406C750.075 97.5006 750.505 99.5306 750.505 101.921L750.495 101.901Z" fill="white"/>
</svg>
