<svg width="237" height="237" viewBox="0 0 237 237" fill="none" xmlns="http://www.w3.org/2000/svg">
<path d="M184.393 0.288269C196.496 -1.66978 207.895 6.55425 209.853 18.6574L236.667 184.393C238.625 196.496 230.4 207.895 218.297 209.853L52.5618 236.667C40.4586 238.625 29.0599 230.4 27.1018 218.297L0.28833 52.5627C-1.66981 40.4594 6.55423 29.06 18.6575 27.1017L184.393 0.288269ZM175.377 163.823V163.843C173.857 165.903 171.578 166.853 169.018 166.893L67.1174 166.863C64.9774 166.703 62.2072 165.363 61.1272 163.453C60.6972 162.713 60.8375 161.493 60.1575 161.223V184.723C60.1575 188.373 66.2874 193.963 70.1174 193.933H166.6C170.874 193.842 176.717 188.458 176.717 184.343V161.213L175.377 163.823ZM157.438 177.853C158.829 177.543 164.838 177.573 166.398 177.763C167.108 177.843 167.818 178.163 168.308 178.663C170.177 180.533 169.287 184.123 166.597 184.763C165.096 185.113 159.338 185.143 157.818 184.833C154.168 184.103 153.938 178.643 157.438 177.853ZM175.377 130.753C173.907 132.693 171.727 133.473 169.377 133.783L68.2278 133.803C65.6678 133.713 63.0773 132.843 61.4973 130.753L60.1575 128.143V151.273C60.1575 155.433 66.6769 161.032 70.887 160.853L165.268 160.883C169.718 161.423 176.717 155.663 176.717 151.273V128.143L175.377 130.753ZM157.058 144.763C158.06 144.483 165.488 144.513 166.738 144.713C169.687 145.173 170.137 149.533 167.837 151.033C165.897 152.293 157.407 152.333 155.787 150.593C154.247 148.943 154.958 145.393 157.058 144.763ZM175.367 97.6633H175.377C173.967 99.6831 171.297 100.274 169.007 100.694C134.507 100.334 99.8171 101.443 65.4172 100.133C63.8773 99.723 62.4473 98.9832 61.4973 97.6633L60.1575 95.0627V118.194C60.1579 122.643 67.4279 128.423 71.9778 127.793L165.608 127.773C169.918 128.092 176.707 122.383 176.707 118.194V95.0627L175.367 97.6633ZM157.818 111.313C159.428 110.983 166.067 111.024 167.427 111.694C170.097 112.994 169.907 117.773 166.738 118.353C165.388 118.603 157.967 118.523 156.887 118.083C153.797 116.833 154.518 111.973 157.818 111.313ZM137.797 36.0334C125.437 34.7934 110.997 36.8632 98.4172 36.1232C92.7974 37.3132 87.5673 40.623 84.5374 45.5529C77.0874 57.6929 71.8275 72.9533 64.6575 85.4533C63.2075 90.6132 65.6375 93.8734 70.8674 94.3234H166.018C170.608 93.9333 173.207 91.4029 172.547 86.633C165.627 73.713 159.947 57.9428 152.337 45.5529C149.477 40.893 143.337 36.5834 137.797 36.0334Z" fill="black"/>
</svg>
